<?xml version="1.0" standalone="no"?>
<!DOCTYPE svg PUBLIC "-//W3C//DTD SVG 20010904//EN"
 "http://www.w3.org/TR/2001/REC-SVG-20010904/DTD/svg10.dtd">
<svg version="1.0" xmlns="http://www.w3.org/2000/svg"
 width="5539.000000pt" height="3754.000000pt" viewBox="0 0 5539.000000 3754.000000"
 preserveAspectRatio="xMidYMid meet">

<g transform="translate(0.000000,3754.000000) scale(0.100000,-0.100000)"
fill="#000000" stroke="none">
<path d="M17275 32900 c-3813 -111 -7857 -882 -12395 -2364 -812 -266 -1720
-583 -1720 -602 0 -14 2846 -8104 2854 -8112 3 -2 251 57 553 132 5247 1299
8724 1662 10841 1131 331 -83 570 -169 837 -300 537 -264 897 -625 1081 -1085
44 -108 105 -327 118 -422 l7 -48 -3528 0 c-3371 0 -3784 -3 -4308 -30 -2775
-144 -4930 -697 -6605 -1698 -311 -185 -708 -465 -973 -684 -365 -303 -747
-688 -1024 -1033 -182 -227 -399 -536 -540 -770 -657 -1088 -1042 -2375 -1158
-3860 -48 -620 -48 -1364 0 -1980 176 -2250 951 -4173 2326 -5775 1133 -1321
2709 -2167 4794 -2574 1452 -283 3321 -341 4890 -151 1791 217 3323 751 4590
1600 480 321 838 617 1278 1055 l277 277 0 -1311 0 -1311 128 -128 127 -127
5264 2 c4667 3 5265 5 5272 18 4 8 22 62 39 120 17 58 38 123 45 145 7 22 27
87 45 145 29 98 45 148 75 245 7 22 27 87 45 145 17 58 38 123 45 145 7 22 23
74 35 115 22 75 60 199 85 275 7 22 23 74 35 115 32 107 69 228 85 275 7 22
23 74 35 115 12 41 32 107 45 145 12 39 33 104 45 145 12 41 32 107 44 145 13
39 33 104 45 145 13 41 27 86 31 100 5 14 23 72 40 130 17 58 38 123 45 145 7
22 23 74 35 115 22 75 60 199 85 275 7 22 23 74 35 115 12 41 32 107 45 145
12 39 33 104 45 145 12 41 25 86 30 100 5 14 25 79 45 145 20 66 40 131 45
145 5 14 23 72 40 130 17 58 38 123 45 145 7 22 27 87 45 145 17 58 38 123 45
145 7 22 23 74 35 115 12 41 32 107 44 145 13 39 33 104 45 145 13 41 27 86
31 100 48 144 61 202 49 216 -7 9 -69 53 -138 99 -1219 810 -2329 1836 -3223
2980 -230 295 -450 601 -625 870 -36 55 -80 123 -98 150 -204 307 -488 809
-705 1245 -91 182 -118 238 -183 380 -13 30 -38 84 -55 120 -16 36 -55 126
-86 200 -31 74 -61 144 -66 155 -5 11 -19 45 -30 75 -12 30 -27 69 -34 85 -8
17 -48 125 -91 240 -42 116 -81 219 -86 230 -18 42 -145 437 -186 575 -9 30
-19 66 -24 80 -10 32 -46 160 -65 230 -8 30 -19 69 -24 85 -8 29 -68 272 -95
390 -8 33 -21 89 -29 125 -26 110 -66 304 -91 445 -9 50 -20 113 -25 140 -28
151 -71 447 -94 635 -30 250 -36 307 -46 425 -5 66 -14 170 -19 230 -5 61 -13
190 -16 288 -4 97 -11 177 -16 177 -5 0 -9 205 -9 480 0 275 4 480 9 480 5 0
12 80 16 178 3 97 11 227 16 287 5 61 14 164 19 230 22 274 89 780 140 1060 5
28 16 91 25 140 30 168 70 359 120 570 31 134 87 362 95 390 5 17 16 55 24 85
19 70 55 198 65 230 5 14 15 50 24 80 41 138 168 533 186 575 5 11 30 79 56
150 48 132 168 444 185 480 5 11 35 81 66 155 31 74 70 164 86 200 17 36 42
90 55 120 65 142 92 198 183 380 111 223 197 387 297 565 405 723 865 1390
1406 2040 255 306 456 526 764 837 l226 228 -17 25 c-61 94 -500 561 -733 781
-1171 1105 -2488 1882 -4133 2439 -1796 608 -3652 937 -5840 1035 -308 14
-1420 20 -1775 10z m2195 -18850 l0 -1190 -122 -142 c-239 -280 -617 -641
-903 -865 -494 -385 -1076 -678 -1649 -828 -395 -104 -728 -145 -1181 -145
-528 0 -906 59 -1260 195 -760 293 -1142 904 -1172 1875 -12 423 77 887 236
1225 171 363 429 627 786 804 280 140 628 225 1016 250 74 4 1060 9 2192 10
l2057 1 0 -1190z"/>
</g>
</svg>
